# xmcd
#
# Track frame offsets:
#	150
#	9002
#	17095
#	28407
#	37542
#	50720
#	59947
#	68195
#	74215
#	80985
#	88902
#	95390
#	104585
#	119457
#	126505
#	131302
#	139092
#	145657
#	152085
#	162540
#	169527
#	178455
#	184102
#	192200
#	201402
#	205055
#	214252
#	224600
#	233772
#	245545
#	254832
#	263337
#	270947
#	279372
#	286475
#
# Disc length: 3930 seconds
#
# Revision: 1
# Processed by: cddbd v1.5.1PL0 Copyright (c) Steve Scherf et al.
# Submitted via: CDex 1.50Beta5
#
DISCID=270f5823
DTITLE=奥　慶一 - 明日のナージャBgmコレクションその２
DYEAR=1900
DGENRE=Soundtrack
TTITLE0=少女へ
TTITLE1=ワルツ　フォー　ナージャ
TTITLE2=ワルツ　#5
TTITLE3=憧れ
TTITLE4=雅なる舞
TTITLE5=鼓動
TTITLE6=心ふるえて
TTITLE7=無伴奏曲
TTITLE8=緊張
TTITLE9=かくれんぼ
TTITLE10=いつかの調べ
TTITLE11=ヴァイオリンにのせて
TTITLE12=チェロの響き
TTITLE13=華やかなる永遠
TTITLE14=行進
TTITLE15=冒険へGo!
TTITLE16=夕暮れのテーブル
TTITLE17=昂揚
TTITLE18=威厳
TTITLE19=威圧
TTITLE20=気配
TTITLE21=緊迫
TTITLE22=キャラバン
TTITLE23=砂のむこう
TTITLE24=エジプシャン　ダンス
TTITLE25=白の誘い
TTITLE26=情熱
TTITLE27=仮面
TTITLE28=舞い踊る花
TTITLE29=ロマンツェ
TTITLE30=カンツォーネ
TTITLE31=太陽と大地の間で
TTITLE32=華麗なるひととき
TTITLE33=この胸の高鳴り
TTITLE34=初恋
EXTD=
EXTT0=
EXTT1=
EXTT2=
EXTT3=
EXTT4=
EXTT5=
EXTT6=
EXTT7=
EXTT8=
EXTT9=
EXTT10=
EXTT11=
EXTT12=
EXTT13=
EXTT14=
EXTT15=
EXTT16=
EXTT17=
EXTT18=
EXTT19=
EXTT20=
EXTT21=
EXTT22=
EXTT23=
EXTT24=
EXTT25=
EXTT26=
EXTT27=
EXTT28=
EXTT29=
EXTT30=
EXTT31=
EXTT32=
EXTT33=
EXTT34=
PLAYORDER=
